<svg xmlns="http://www.w3.org/2000/svg" width="600" height="900" viewBox="0 0 600 900"><rect width="100%" height="100%" fill="#1f1f29"/><path fill="#f5f5f5" d="M141.345 449.75h12.46q4.59 0 8-1.15 3.41-1.14 5.67-3.28t3.38-5.21q1.11-3.07 1.11-6.85 0-3.6-1.11-6.51-1.12-2.91-3.35-4.96t-5.64-3.13q-3.41-1.09-8.06-1.09h-12.46zm-16.68-45.07h29.14q8.99 0 15.56 2.11 6.57 2.1 10.85 5.89 4.28 3.78 6.35 9.05 2.08 5.27 2.08 11.53 0 6.51-2.17 11.94-2.17 5.42-6.51 9.33-4.34 3.9-10.88 6.07t-15.28 2.17h-12.46v31.56h-16.68zm102.48 25.05q7.07 0 12.87 2.29t9.92 6.51 6.35 10.29q2.24 6.08 2.24 13.58 0 7.56-2.24 13.64-2.23 6.08-6.35 10.35-4.12 4.28-9.92 6.58-5.8 2.29-12.87 2.29-7.13 0-12.95-2.29-5.83-2.3-9.96-6.58-4.12-4.27-6.38-10.35t-2.26-13.64q0-7.5 2.26-13.58 2.26-6.07 6.38-10.29 4.13-4.22 9.96-6.51 5.82-2.29 12.95-2.29m0 53.75q7.94 0 11.75-5.33 3.82-5.33 3.82-15.63 0-10.29-3.82-15.68-3.81-5.4-11.75-5.4-8.06 0-11.93 5.43-3.88 5.42-3.88 15.65t3.88 15.6q3.87 5.36 11.93 5.36m85.38-45.88-3.47 5.52q-.62.99-1.31 1.39-.68.41-1.73.41-1.12 0-2.39-.62t-2.94-1.4q-1.68-.77-3.82-1.39t-5.05-.62q-4.53 0-7.1 1.92t-2.57 5.02q0 2.05 1.33 3.44 1.33 1.4 3.53 2.45 2.21 1.05 5 1.89t5.67 1.83 5.67 2.26 4.99 3.23q2.2 1.95 3.54 4.68 1.33 2.73 1.33 6.57 0 4.59-1.64 8.46-1.65 3.88-4.87 6.7t-7.97 4.4q-4.74 1.58-10.94 1.58-3.29 0-6.42-.59t-6.01-1.64-5.33-2.48-4.31-3.1l3.53-5.83q.68-1.05 1.61-1.61t2.36-.56 2.7.81q1.27.8 2.94 1.73 1.68.93 3.94 1.74t5.73.81q2.73 0 4.68-.65 1.96-.66 3.23-1.71t1.86-2.45q.59-1.39.59-2.88 0-2.23-1.34-3.66-1.33-1.43-3.53-2.48t-5.02-1.89-5.77-1.83q-2.94-.99-5.76-2.33-2.82-1.33-5.03-3.37-2.2-2.05-3.53-5.03-1.33-2.97-1.33-7.19 0-3.9 1.55-7.44 1.55-3.53 4.55-6.17 3.01-2.63 7.51-4.21 4.49-1.58 10.38-1.58 6.57 0 11.97 2.17 5.39 2.17 8.99 5.7m33.42 57.72q-8.31 0-12.75-4.68-4.43-4.68-4.43-12.93v-35.52h-6.51q-1.24 0-2.11-.81-.86-.8-.86-2.42v-6.07l10.23-1.68 3.22-17.36q.31-1.24 1.18-1.92t2.23-.68h7.94v20.03h16.98v10.91h-16.98v34.47q0 2.98 1.45 4.65 1.46 1.67 4 1.67 1.43 0 2.39-.34t1.67-.71q.72-.37 1.27-.71.56-.34 1.12-.34.68 0 1.12.34.43.34.93 1.02l4.58 7.44q-3.34 2.79-7.68 4.22-4.34 1.42-8.99 1.42m37.01-40.11h28.89q0-2.98-.84-5.61-.83-2.64-2.51-4.62-1.67-1.99-4.24-3.13-2.58-1.15-5.99-1.15-6.63 0-10.44 3.78-3.82 3.78-4.87 10.73m39.06 9.24h-39.37q.37 4.89 1.74 8.46 1.36 3.56 3.59 5.89 2.23 2.32 5.3 3.47t6.79 1.15 6.42-.87 4.71-1.92q2.02-1.06 3.53-1.92 1.52-.87 2.95-.87 1.92 0 2.85 1.42l4.4 5.58q-2.54 2.98-5.7 4.99-3.16 2.02-6.6 3.23t-7.01 1.7q-3.56.5-6.91.5-6.64 0-12.34-2.2t-9.92-6.51-6.63-10.67q-2.42-6.35-2.42-14.72 0-6.51 2.11-12.24 2.1-5.74 6.04-9.99 3.94-4.24 9.61-6.72t12.8-2.48q6.02 0 11.1 1.92 5.09 1.92 8.74 5.61 3.66 3.69 5.74 9.05t2.08 12.25q0 3.47-.75 4.68-.74 1.21-2.85 1.21m28.58-29.89.93 7.19q2.98-5.7 7.07-8.95 4.09-3.26 9.67-3.26 4.4 0 7.07 1.92l-.99 11.47q-.31 1.12-.9 1.58-.59.47-1.58.47-.93 0-2.76-.31t-3.57-.31q-2.54 0-4.52.74-1.99.75-3.57 2.14-1.58 1.4-2.79 3.38t-2.26 4.53v39.18h-15.31v-63.61h8.99q2.35 0 3.28.84.93.83 1.24 3"/></svg>