<svg xmlns="http://www.w3.org/2000/svg" width="200" height="50" viewBox="0 0 200 50"><rect width="100%" height="100%" fill="#08080a"/><path fill="#e50914" d="m49.19 19.13-.67 1.27q-.12.21-.26.3-.13.1-.33.1-.21 0-.46-.16-.24-.15-.58-.34t-.8-.35q-.45-.15-1.07-.15-.56 0-.98.14-.42.13-.71.37-.28.24-.42.57-.14.34-.14.74 0 .51.28.85.29.34.76.58t1.07.43 1.23.4q.63.22 1.23.51.6.28 1.07.71.47.44.75 1.07.29.63.29 1.53 0 .98-.34 1.84-.33.85-.98 1.48-.64.64-1.57 1-.93.37-2.13.37-.69 0-1.36-.13-.67-.14-1.29-.39-.61-.25-1.15-.6t-.96-.78l.79-1.29q.1-.14.26-.24.16-.09.34-.09.25 0 .54.2.29.21.69.46t.93.45q.54.21 1.29.21 1.15 0 1.78-.54.63-.55.63-1.57 0-.57-.29-.93-.28-.36-.75-.61-.47-.24-1.07-.41t-1.22-.37-1.22-.48-1.07-.73-.76-1.12q-.28-.68-.28-1.67 0-.79.31-1.54.32-.75.92-1.33t1.48-.93 2.02-.35q1.28 0 2.36.4t1.84 1.12m12.7-1.36v2.21h-4.36v12.25h-2.69V19.98h-4.36v-2.21zm4.59 6.88h1.68q.76 0 1.32-.19.57-.19.93-.52.37-.34.55-.8t.18-1.01q0-1.1-.73-1.69-.72-.59-2.21-.59h-1.72zm4.98 2.24 3.62 5.34h-2.43q-.69 0-1-.54l-3.04-4.63q-.17-.26-.38-.37-.2-.11-.6-.11h-1.15v5.65h-2.69V17.77h4.41q1.47 0 2.52.3 1.06.31 1.73.86.68.55 1 1.32.32.76.32 1.68 0 .73-.22 1.38-.21.65-.62 1.18-.4.53-1 .93-.59.4-1.35.63.26.15.48.35.22.21.4.49m14.31-6.98h-6.42v4.01h5.06v2.07h-5.06v4.09h6.42v2.15h-9.12V17.77h9.12zm5.42 6.86h4.6l-1.76-4.81q-.13-.32-.27-.76t-.28-.95q-.13.51-.27.95-.14.45-.27.78zm3.67-9 5.68 14.46h-2.08q-.35 0-.57-.18-.22-.17-.33-.43l-1.08-2.95h-5.99l-1.08 2.95q-.08.23-.31.42t-.57.19h-2.1l5.69-14.46zm20.83 0h2.03v14.46h-2.37v-9.34q0-.56.06-1.21l-4.37 8.21q-.31.59-.95.59h-.38q-.64 0-.95-.59l-4.42-8.24q.03.33.05.65t.02.59v9.34h-2.37V17.77h2.03q.18 0 .31.01t.23.05q.11.04.19.13.09.09.17.24l4.33 8.03q.17.32.31.66.15.34.29.7.14-.37.29-.72.15-.34.32-.66l4.27-8.01q.08-.15.17-.24t.19-.13q.11-.04.24-.05t.31-.01m14.37 2.14h-6.42v4.28h5.42v2.15h-5.42v5.89h-2.7V17.77h9.12zm4.89 10.1h5.78v2.22h-8.47V17.77h2.69zm10.4-12.24v14.46h-2.7V17.77zm10.2 6.91 4.78 7.55h-2.68q-.28 0-.45-.14-.16-.14-.26-.32l-3.35-5.55q-.08.25-.19.43l-3.21 5.12q-.12.17-.28.32-.15.14-.4.14H147l4.8-7.44-4.61-7.02h2.68q.28 0 .4.08.13.07.24.24l3.29 5.3q.1-.25.24-.5l3.02-4.75q.11-.19.24-.28t.33-.09h2.57z"/></svg>